<?xml version="1.0" encoding="UTF-8"?>
<svg width="662px" height="282px" viewBox="0 0 662 282" version="1.1" xmlns="http://www.w3.org/2000/svg" xmlns:xlink="http://www.w3.org/1999/xlink">
    <title>Artboard</title>
    <g id="Artboard" stroke="none" stroke-width="1" fill="none" fill-rule="evenodd">
        <g id="home-standards-project-blue-text-01" fill-rule="nonzero">
            <g id="Group">
                <polyline id="Path" fill="#EEBE2C" points="0.24 200.08 176.16 200.08 176.16 280.22"></polyline>
                <path d="M176.16,280.22 L23.24,280.22 C10.54,280.22 0.25,269.93 0.25,257.23 L0.25,200.08 L176.16,200.08 L176.16,280.22 Z" id="Path" fill="#EEBE2C"></path>
                <path d="M275.59,125.12 L176.16,125.12 L176.16,280.22 L252.6,280.22 C265.3,280.22 275.59,269.93 275.59,257.23 L275.59,125.12 L275.59,125.12 Z" id="Path" fill="#9D1C3C"></path>
                <polygon id="Path" fill="#1A335E" points="138.91 0.5 99.67 23.63 0.24 79.3 0.24 200.08 99.67 200.08 99.67 125.12 275.59 125.12 275.59 79.23"></polygon>
            </g>
            <polygon id="Path" fill="#1A335E" points="315.43 79.2 325.41 79.2 325.41 100.59 338.82 100.59 338.82 79.2 348.8 79.2 348.8 133.32 338.82 133.32 338.82 109 325.41 109 325.41 133.32 315.43 133.32"></polygon>
            <path d="M394.83,105.85 C394.83,125.64 389.3,134.25 376.47,134.25 C364.49,134.25 358.64,125.76 358.64,105.73 C358.64,86.2 365.44,78.34 376.92,78.34 C389.05,78.34 394.83,87.06 394.83,105.85 Z M368.86,105.65 C368.86,118.49 370.86,126.13 376.7,126.13 C382.85,126.13 384.61,119.06 384.61,105.67 C384.61,93.1 382.74,86.5499894 376.69,86.5499894 C370.74,86.54 368.86,93.59 368.86,105.65 Z" id="Shape" fill="#1A335E"></path>
            <path d="M438.91,113.19 C438.91,103.95 439.07,93.4 439.24,87.25 L439.01,87.25 C437.09,97.53 434,115.79 430.36,133.31 L421.36,133.31 C418.66,116.99 415.47,97.56 413.68,87.1 L413.37,87.1 C413.7,93.42 413.95,104.76 413.95,114.11 L413.95,133.31 L404.84,133.31 L404.84,79.2 L419.74,79.2 C422.65,94.16 425.21,109.27 426.32,117.16 L426.4,117.16 C427.53,109.82 431.02,93.51 433.92,79.2 L448.46,79.2 L448.46,133.32 L438.9,133.32 L438.9,113.19 L438.91,113.19 Z" id="Path" fill="#1A335E"></path>
            <polygon id="Path" fill="#1A335E" points="487.84 109.27 469.98 109.27 469.98 124.99 490.04 124.99 488.81 133.33 460.14 133.33 460.14 79.2 488.68 79.2 488.68 87.68 469.97 87.68 469.97 100.85 487.83 100.85 487.83 109.27"></polygon>
            <path d="M322.3,191.79 C322.78,196.28 324.64,200.23 329.73,200.23 C334.64,200.23 336.45,197.24 336.45,193.21 C336.45,188.76 334.2,186.18 327.16,182.91 C317.63,178.51 313.9,174.62 313.9,166.58 C313.9,157.9 319.64,151.97 329.7,151.97 C342.22,151.97 345.31,160.21 345.47,167.25 L335.71,167.25 C335.39,164.16 334.57,159.6 329.53,159.6 C325.59,159.6 323.82,162.09 323.82,165.76 C323.82,169.66 325.6,171.48 332.13,174.43 C342.12,178.92 346.6,183.28 346.6,192.34 C346.6,200.84 341.19,207.86 329.43,207.86 C316.63,207.86 312.73,199.89 312.38,191.78 L322.3,191.78 L322.3,191.79 Z" id="Path" fill="#1A335E"></path>
            <polygon id="Path" fill="#1A335E" points="361.26 161.3 349.37 161.3 349.37 152.82 383.13 152.82 383.13 161.3 371.24 161.3 371.24 206.94 361.26 206.94"></polygon>
            <path d="M392.44,193.32 L389.68,206.94 L379.7,206.94 L392.59,152.82 L405.52,152.82 L418.55,206.94 L408.09,206.94 L405.32,193.32 L392.44,193.32 Z M403.54,184.91 C401.46,174.55 399.8,166.98 398.93,161.82 L398.69,161.82 C398.01,166.8 396.25,174.93 394.2,184.91 L403.54,184.91 Z" id="Shape" fill="#1A335E"></path>
            <path d="M423.28,206.94 L423.28,152.82 L434.6,152.82 C446.11,182.73 448.32,188.43 448.99,191.08 L449.07,191.08 C448.6,184.58 448.58,176.61 448.58,167.74 L448.58,152.81 L457.49,152.81 L457.49,206.93 L446.64,206.93 C434.75,175.04 432.64,169.3 431.92,166.81 L431.84,166.81 C432.25,173.48 432.26,181.45 432.26,191.14 L432.26,206.92 L423.28,206.92 L423.28,206.94 Z" id="Path" fill="#1A335E"></path>
            <path d="M467.13,152.82 L481.63,152.82 C495.95,152.82 501.51,161.74 501.51,178.77 C501.51,197.05 496.18,206.94 480.86,206.94 L467.13,206.94 L467.13,152.82 Z M477.18,199.03 L480.74,199.03 C488.53,199.03 491.21,193.33 491.21,178.81 C491.21,166.36 488.83,160.88 480.82,160.88 L477.18,160.88 L477.18,199.03 Z" id="Shape" fill="#1A335E"></path>
            <path d="M517.15,193.32 L514.39,206.94 L504.41,206.94 L517.3,152.82 L530.23,152.82 L543.26,206.94 L532.8,206.94 L530.03,193.32 L517.15,193.32 Z M528.26,184.91 C526.18,174.55 524.52,166.98 523.65,161.82 L523.41,161.82 C522.73,166.8 520.97,174.93 518.92,184.91 L528.26,184.91 Z" id="Shape" fill="#1A335E"></path>
            <path d="M557.91,183.87 L557.91,206.95 L548,206.95 L548,152.83 L565.04,152.83 C575.16,152.83 580.89,157.96 580.89,167.62 C580.89,175.45 576.58,178.83 573.67,179.94 C577.98,181.9 580.02,185.46 580.02,193.45 L580.02,195.61 C580.02,201.76 580.32,204.06 580.77,206.95 L571.13,206.95 C570.32,204.47 570.17,200.19 570.17,195.53 L570.17,193.56 C570.17,186.33 568.46,183.88 562.17,183.88 L557.91,183.88 L557.91,183.87 Z M557.91,176.02 L562.58,176.02 C568.6,176.02 570.95,173.5 570.95,168.03 C570.95,163.37 568.66,160.67 563.56,160.67 L557.9,160.67 L557.9,176.02 L557.91,176.02 Z" id="Shape" fill="#1A335E"></path>
            <path d="M588.47,152.82 L602.97,152.82 C617.29,152.82 622.85,161.74 622.85,178.77 C622.85,197.05 617.52,206.94 602.2,206.94 L588.47,206.94 L588.47,152.82 L588.47,152.82 Z M598.53,199.03 L602.09,199.03 C609.88,199.03 612.56,193.33 612.56,178.81 C612.56,166.36 610.18,160.88 602.17,160.88 L598.53,160.88 L598.53,199.03 Z" id="Shape" fill="#1A335E"></path>
            <path d="M637.46,191.79 C637.94,196.28 639.8,200.23 644.89,200.23 C649.8,200.23 651.61,197.24 651.61,193.21 C651.61,188.76 649.36,186.18 642.32,182.91 C632.79,178.51 629.06,174.62 629.06,166.58 C629.06,157.9 634.8,151.97 644.86,151.97 C657.38,151.97 660.47,160.21 660.63,167.25 L650.87,167.25 C650.55,164.16 649.73,159.6 644.69,159.6 C640.75,159.6 638.98,162.09 638.98,165.76 C638.98,169.66 640.76,171.48 647.29,174.43 C657.28,178.92 661.76,183.28 661.76,192.34 C661.76,200.84 656.35,207.86 644.59,207.86 C631.79,207.86 627.89,199.89 627.55,191.78 L637.46,191.78 L637.46,191.79 Z" id="Path" fill="#1A335E"></path>
            <path d="M315.43,226.45 L332.17,226.45 C341.37,226.45 348.25,231.81 348.25,242.55 C348.25,253.01 342.01,258.56 331.4,258.56 L325.41,258.56 L325.41,280.57 L315.43,280.57 L315.43,226.45 Z M325.41,250.78 L330.28,250.78 C335.81,250.78 338.26,248.12 338.26,242.41 C338.26,237 335.38,234.3 330.82,234.3 L325.42,234.3 L325.42,250.78 L325.41,250.78 Z" id="Shape" fill="#1A335E"></path>
            <path d="M366.56,257.49 L366.56,280.57 L356.65,280.57 L356.65,226.45 L373.69,226.45 C383.81,226.45 389.54,231.58 389.54,241.24 C389.54,249.07 385.23,252.45 382.32,253.56 C386.63,255.52 388.67,259.08 388.67,267.07 L388.67,269.23 C388.67,275.38 388.97,277.68 389.42,280.57 L379.78,280.57 C378.97,278.09 378.82,273.81 378.82,269.15 L378.82,267.18 C378.82,259.95 377.11,257.5 370.82,257.5 L366.56,257.5 L366.56,257.49 Z M366.56,249.64 L371.23,249.64 C377.25,249.64 379.6,247.12 379.6,241.65 C379.6,236.99 377.31,234.29 372.21,234.29 L366.55,234.29 L366.55,249.64 L366.56,249.64 Z" id="Shape" fill="#1A335E"></path>
            <path d="M433.91,253.09 C433.91,272.88 428.38,281.49 415.55,281.49 C403.57,281.49 397.72,273 397.72,252.97 C397.72,233.44 404.52,225.58 416,225.58 C428.13,225.59 433.91,234.3 433.91,253.09 Z M407.94,252.89 C407.94,265.73 409.94,273.37 415.78,273.37 C421.93,273.37 423.69,266.3 423.69,252.91 C423.69,240.33 421.82,233.79 415.77,233.79 C409.82,233.79 407.94,240.83 407.94,252.89 Z" id="Shape" fill="#1A335E"></path>
            <path d="M457.06,266.36 C457.06,275.29 454.9,281.29 443.79,281.29 C441.61,281.29 439.67,281.06 438.41,280.83 L438.41,272.78 C439.33,272.87 440.56,273.02 441.96,273.02 C446.4,273.02 447.08,271.01 447.08,266.85 L447.08,226.45 L457.06,226.45 L457.06,266.36 Z" id="Path" fill="#1A335E"></path>
            <polygon id="Path" fill="#1A335E" points="495.98 256.51 478.12 256.51 478.12 272.23 498.18 272.23 496.95 280.57 468.28 280.57 468.28 226.45 496.82 226.45 496.82 234.93 478.11 234.93 478.11 248.1 495.97 248.1 495.97 256.51"></polygon>
            <path d="M539.23,264.81 C538.98,267.55 537.92,281.5 522.47,281.5 C506.65,281.5 504.83,267.98 504.83,253.44 C504.83,235.92 510.12,225.59 523.07,225.59 C537.83,225.59 538.97,237.9 539.2,242.23 L529.34,242.23 C529.19,240.39 529.05,233.81 522.91,233.81 C516.65,233.81 515.13,241.26 515.13,253.64 C515.13,263.85 516.18,273.42 522.63,273.42 C528.57,273.42 529.05,266.88 529.29,264.81 L539.23,264.81 L539.23,264.81 Z" id="Path" fill="#1A335E"></path>
            <polygon id="Path" fill="#1A335E" points="556.23 234.93 544.34 234.93 544.34 226.45 578.1 226.45 578.1 234.93 566.21 234.93 566.21 280.57 556.23 280.57"></polygon>
        </g>
    </g>
</svg>