<?xml version="1.0" encoding="UTF-8"?>
<svg width="769px" height="160px" viewBox="0 0 769 160" version="1.1" xmlns="http://www.w3.org/2000/svg" xmlns:xlink="http://www.w3.org/1999/xlink">
    <title>logo</title>
    <g id="logo" stroke="none" stroke-width="1" fill="none" fill-rule="evenodd">
        <path d="M188.001492,59.7086777 C188.071748,63.714876 190.717701,68 196.014774,68 C201.520547,68 204.166501,63.3657025 203.991894,59.1859504 C203.818322,55.25 201.764376,51 196.014774,51 C190.266205,51 187.93227,55.5981405 188.001492,59.7086777 Z M208.389415,59.231003 C208.421604,61.9635258 207.709422,64.7993921 206.183461,67.0202634 L209,69.8216819 L205.845476,73 L202.960535,70.1296859 C201.164992,71.2907801 198.891642,71.9057751 196.211907,71.9057751 C187.766313,71.9057751 184.035404,65.7223911 184,59.5045593 C183.968009,53.2522796 187.866903,47 196.211907,47 C204.55691,47 208.287818,53.0810537 208.389415,59.231003 L208.389415,59.231003 Z" id="Fill-5" fill="#8A2138"></path>
        <path d="M223,67 L229.67287,67 C231.455436,67 234,66.4 234,64.200659 C234,62.1001647 231.455436,61 229.67287,61 L223,61 L223,67 Z M223,57 L230.121828,57 C233.047705,57 234,55.9132437 234,54.6708418 C234,53.6771044 233.082201,52 230.121828,52 L223,52 L223,57 Z M238.29306,54.6698441 C238.29306,56.4442467 237.418372,58.1523894 235.228657,59.1053635 C237.989516,59.9267921 239,62.7847399 239,64.230766 C239,69.3571429 235.060909,71 230.178233,71 C226.441837,71 222.737394,71 219,71 L219,48 C222.703445,48 226.441837,48 230.178233,48 C234.825262,48 238.29306,50.0365192 238.29306,54.6698441 L238.29306,54.6698441 Z" id="Fill-6" fill="#8A2138"></path>
        <path d="M258.499487,53 L254,63 L263,63 L258.499487,53 Z M265.161679,66.6619217 L252.836323,66.6619217 L250.814889,71 L246,71 L256.575577,48 L261.424423,48 L272,71 L267.150156,71 L265.161679,66.6619217 L265.161679,66.6619217 Z" id="Fill-7" fill="#8A2138"></path>
        <path d="M299.59,68.6924213 C297.216061,71.123668 294.152819,72.255 290.820701,72.255 C282.248904,72.255 278.622487,66.1250898 278.590222,59.8915926 C278.556001,53.624582 282.478671,47.255 290.820701,47.255 C293.954339,47.255 296.921763,48.4878878 299.294724,50.9191345 L296.393786,53.8307403 C294.876343,52.2891228 292.8319,51.5701074 290.820701,51.5701074 C285.250548,51.5701074 282.842389,55.8852149 282.875632,59.8915926 C282.908874,63.8634413 285.117576,68.007935 290.820701,68.007935 C292.8319,68.007935 295.107088,67.1518193 296.624532,65.5756727 L299.59,68.6924213" id="Fill-8" fill="#8A2138"></path>
        <path d="M328.59,68.6924213 C326.215303,71.123668 323.150389,72.255 319.820534,72.255 C311.24953,72.255 307.623449,66.1250898 307.59,59.8915926 C307.55697,53.624582 311.480254,47.255 319.820534,47.255 C322.95095,47.255 325.919077,48.4878878 328.292796,50.9191345 L325.392127,53.8307403 C323.874824,52.2891228 321.831548,51.5701074 319.820534,51.5701074 C314.248942,51.5701074 311.84296,55.8852149 311.875223,59.8915926 C311.907485,63.8634413 314.115982,68.007935 319.820534,68.007935 C321.831548,68.007935 324.10457,67.1518193 325.621873,65.5756727 L328.59,68.6924213" id="Fill-9" fill="#8A2138"></path>
        <polyline id="Fill-10" fill="#8A2138" points="333.245419 48.255 337.59 48.255 334.898793 55.255 331.59 55.255 333.245419 48.255"></polyline>
        <path d="M358.350757,53.7575379 C357.550638,52.4106692 355.34536,51.1297452 352.80934,51.1297452 C349.534596,51.1297452 347.966046,52.5115845 347.966046,54.2631132 C347.966046,56.3183868 350.370363,56.8909058 353.17474,57.227623 C358.050712,57.8341135 362.59,59.1150376 362.59,64.7413115 C362.59,69.9968968 357.983375,72.255 352.773691,72.255 C347.999714,72.255 344.325901,70.7722455 342.59,66.4598679 L346.262823,64.5384819 C347.29862,67.1333022 350.004963,68.2793396 352.842018,68.2793396 C355.613716,68.2793396 358.217073,67.3021604 358.217073,64.7413115 C358.217073,62.5171798 355.913761,61.6079435 352.80934,61.2712264 C348.032392,60.6977081 343.624807,59.4177833 343.624807,54.1282265 C343.624807,49.2763021 348.366105,47.2889715 352.674666,47.255 C356.314811,47.255 360.086658,48.2991229 361.857218,51.9390654 L358.350757,53.7575379" id="Fill-11" fill="#8A2138"></path>
        <polyline id="Fill-12" fill="#1D2B49" points="186.59 92.255 198.551361 92.255 198.551361 119.131411 214.626663 119.131411 214.626663 92.255 226.59 92.255 226.59 160.255 214.626663 160.255 214.626663 129.699428 198.551361 129.699428 198.551361 160.255 186.59 160.255 186.59 92.255"></polyline>
        <path d="M254,125.133042 C254,141.353063 256.416409,151 263.4617,151 C270.880046,151 273,142.065062 273,125.157349 C273,109.272565 270.746741,101 263.449762,101 C256.265197,101 254,109.898477 254,125.133042 Z M286,125.437354 C286,150.213859 279.272723,161 263.672659,161 C249.10224,161 242,150.373467 242,125.296818 C242,100.849569 250.266229,91 264.225078,91 C278.972953,91 286,101.912624 286,125.437354 L286,125.437354 Z" id="Fill-13" fill="#1D2B49"></path>
        <path d="M340.979723,134.96631 C340.979723,123.35761 341.179054,110.099736 341.379386,102.379744 L341.102927,102.379744 C338.769052,115.293075 335.02183,138.240481 330.597484,160.255 L319.667336,160.255 C316.389894,139.7466 312.506446,115.337402 310.335842,102.190346 L309.959217,102.190346 C310.359882,110.130967 310.659379,124.381167 310.659379,136.128893 L310.659379,160.255 L299.59,160.255 L299.59,92.255 L317.684043,92.255 C321.22392,111.047735 324.32507,130.034905 325.684326,139.956147 L325.783491,139.956147 C327.158775,130.729029 331.394808,110.242792 334.922666,92.255 L352.59,92.255 L352.59,160.255 L340.979723,160.255 L340.979723,134.96631" id="Fill-14" fill="#1D2B49"></path>
        <polyline id="Fill-15" fill="#1D2B49" points="402.950477 130.029867 381.437071 130.029867 381.437071 149.775638 405.59 149.775638 404.112344 160.255 369.59 160.255 369.59 92.255 403.966365 92.255 403.966365 102.910664 381.437071 102.910664 381.437071 119.462858 402.950477 119.462858 402.950477 130.029867"></polyline>
        <path d="M448,122 L454.060606,122 C460.951207,122 464,118.609806 464,111.329928 C464,104.434116 460.418079,101 454.725218,101 L448,101 L448,122 Z M436,91 L456.400884,91 C467.607556,91 476,97.7327032 476,111.22531 C476,124.364307 468.397267,131.342825 455.464483,131.342825 L448.163167,131.342825 L448.163167,159 L436,159 L436,91 L436,91 Z" id="Fill-16" fill="#1D2B49"></path>
        <path d="M501,120 L506.733502,120 C514.114539,120 517,116.884286 517,110.111901 C517,104.342023 514.191403,101 507.93603,101 L501,101 L501,120 Z M501.050536,130.002933 L501.050536,159 L489,159 L489,91 L509.723955,91 C522.025168,91 529,97.4435687 529,109.577143 C529,119.410738 523.758849,123.656079 520.225308,125.062461 C525.467462,127.526653 527.94816,132.000682 527.94816,142.043824 L527.94816,144.756852 C527.94816,152.483896 528.313145,155.369196 528.859621,159 L517.137973,159 C516.150306,155.885004 515.973829,150.502267 515.973829,144.644019 L515.973829,142.167738 C515.973829,133.078639 513.897223,130.002933 506.247568,130.002933 L501.050536,130.002933 L501.050536,130.002933 Z" id="Fill-17" fill="#1D2B49"></path>
        <path d="M552,124.133566 C552,140.353258 554.416409,150 561.4617,150 C568.881041,150 571,141.065243 571,124.15686 C571,108.27341 568.746741,100 561.450757,100 C554.266192,100 552,108.899309 552,124.133566 Z M584,124.437354 C584,149.213859 577.273726,160 561.673662,160 C547.103242,160 540,149.373467 540,124.296818 C540,99.8495691 548.267232,90 562.226081,90 C576.972953,90 584,100.91162 584,124.437354 L584,124.437354 Z" id="Fill-18" fill="#1D2B49"></path>
        <path d="M616.59,141.470294 C616.59,152.710852 613.926178,160.255 600.222601,160.255 C597.527248,160.255 595.141099,159.965461 593.59,159.675923 L593.59,149.54913 C594.717979,149.661112 596.241616,149.850775 597.965625,149.850775 C603.44075,149.850775 604.276817,147.319581 604.276817,142.085689 L604.276817,91.255 L616.59,91.255 L616.59,141.470294" id="Fill-19" fill="#1D2B49"></path>
        <polyline id="Fill-20" fill="#1D2B49" points="665.951397 129.029867 644.437397 129.029867 644.437397 148.775638 668.59 148.775638 667.112303 159.255 632.59 159.255 632.59 91.255 666.965328 91.255 666.965328 101.910664 644.437397 101.910664 644.437397 118.460843 665.951397 118.460843 665.951397 129.029867"></polyline>
        <path d="M720.59,139.363313 C720.287987,142.789381 718.979262,160.255 700.123557,160.255 C680.808792,160.255 678.59,143.328437 678.59,125.121993 C678.59,103.180301 685.042013,90.255 700.858456,90.255 C718.878591,90.255 720.267852,105.664777 720.549732,111.085453 L708.51953,111.085453 C708.328255,108.781666 708.167181,100.544246 700.667181,100.544246 C693.026242,100.544246 691.163826,109.865801 691.163826,125.373954 C691.163826,138.150688 692.442349,150.142428 700.324899,150.142428 C707.583289,150.142428 708.157114,141.959215 708.459128,139.363313 L720.59,139.363313" id="Fill-21" fill="#1D2B49"></path>
        <polyline id="Fill-22" fill="#1D2B49" points="743.027607 101.910664 728.59 101.910664 728.59 91.255 769.59 91.255 769.59 101.910664 755.152393 101.910664 755.152393 159.255 743.027607 159.255 743.027607 101.910664"></polyline>
        <g id="Group" transform="translate(-0.587000, 0.000000)">
            <polyline id="Fill-1" fill="#E6B938" points="0.587 114 101.587 114 101.587 160"></polyline>
            <path d="M101.587,160 L13.7887963,160 C6.49778077,160 0.587,154.090716 0.587,146.801547 L0.587,114 L101.587,114 L101.587,160" id="Fill-2" fill="#E6B938"></path>
            <path d="M158.587,71 L101.587,71 L101.587,160 L145.405152,160 C152.68515,160 158.587,154.092298 158.587,146.805081 L158.587,71" id="Fill-3" fill="#8A2138"></path>
            <polyline id="Fill-4" fill="#1D2B49" points="80.1585323 0 57.6426831 13.2105284 0.587 45.0107329 0.587 114 57.6426831 114 57.6426831 71.1844529 158.587 71.1844529 158.587 44.9707477 80.1585323 0"></polyline>
        </g>
    </g>
</svg>